<svg width="29" height="36" viewBox="0 0 29 36" fill="none" xmlns="http://www.w3.org/2000/svg">
<path d="M27.1875 9H21.75V7.2C21.75 5.29044 20.9862 3.45909 19.6265 2.10883C18.2669 0.758569 16.4228 0 14.5 0C12.5772 0 10.7331 0.758569 9.37348 2.10883C8.01384 3.45909 7.25 5.29044 7.25 7.2V9H1.8125C1.3318 9 0.870779 9.18964 0.530869 9.52721C0.19096 9.86477 0 10.3226 0 10.8V30.6C0 32.0322 0.572878 33.4057 1.59261 34.4184C2.61234 35.4311 3.99539 36 5.4375 36H23.5625C25.0046 36 26.3877 35.4311 27.4074 34.4184C28.4271 33.4057 29 32.0322 29 30.6V10.8C29 10.3226 28.809 9.86477 28.4691 9.52721C28.1292 9.18964 27.6682 9 27.1875 9ZM10.875 7.2C10.875 6.24522 11.2569 5.32955 11.9367 4.65442C12.6166 3.97928 13.5386 3.6 14.5 3.6C15.4614 3.6 16.3834 3.97928 17.0633 4.65442C17.7431 5.32955 18.125 6.24522 18.125 7.2V9H10.875V7.2ZM25.375 30.6C25.375 31.0774 25.184 31.5352 24.8441 31.8728C24.5042 32.2104 24.0432 32.4 23.5625 32.4H5.4375C4.9568 32.4 4.49578 32.2104 4.15587 31.8728C3.81596 31.5352 3.625 31.0774 3.625 30.6V12.6H7.25V14.4C7.25 14.8774 7.44096 15.3352 7.78087 15.6728C8.12078 16.0104 8.58179 16.2 9.0625 16.2C9.54321 16.2 10.0042 16.0104 10.3441 15.6728C10.684 15.3352 10.875 14.8774 10.875 14.4V12.6H18.125V14.4C18.125 14.8774 18.316 15.3352 18.6559 15.6728C18.9958 16.0104 19.4568 16.2 19.9375 16.2C20.4182 16.2 20.8792 16.0104 21.2191 15.6728C21.559 15.3352 21.75 14.8774 21.75 14.4V12.6H25.375V30.6Z" fill="#093A2F"/>
</svg>
