<svg width="32" height="36" viewBox="0 0 32 36" fill="none" xmlns="http://www.w3.org/2000/svg">
<path d="M30.2222 10.8301L19.5556 1.37343C18.5778 0.488974 17.3119 0 16.0001 0C14.6882 0 13.4223 0.488974 12.4445 1.37343L1.77793 10.8301C1.21326 11.3408 0.762652 11.9674 0.456115 12.668C0.149579 13.3686 -0.0058534 14.1272 0.000168522 14.8933V30.6065C0.000168522 32.0369 0.562068 33.4088 1.56225 34.4203C2.56244 35.4318 3.91899 36 5.33346 36H26.6666C28.0811 36 29.4377 35.4318 30.4379 34.4203C31.438 33.4088 31.9999 32.0369 31.9999 30.6065V14.8753C32.0034 14.1122 31.8468 13.3571 31.5403 12.6598C31.2339 11.9624 30.7846 11.3388 30.2222 10.8301ZM19.5556 32.4043H12.4445V23.4151C12.4445 22.9382 12.6318 22.481 12.9652 22.1438C13.2986 21.8066 13.7508 21.6172 14.2223 21.6172H17.7778C18.2493 21.6172 18.7015 21.8066 19.0349 22.1438C19.3683 22.481 19.5556 22.9382 19.5556 23.4151V32.4043ZM28.4444 30.6065C28.4444 31.0833 28.2571 31.5406 27.9237 31.8777C27.5903 32.2149 27.1381 32.4043 26.6666 32.4043H23.1111V23.4151C23.1111 21.9846 22.5492 20.6127 21.549 19.6012C20.5488 18.5898 19.1923 18.0215 17.7778 18.0215H14.2223C12.8078 18.0215 11.4513 18.5898 10.4511 19.6012C9.45089 20.6127 8.88899 21.9846 8.88899 23.4151V32.4043H5.33346C4.86197 32.4043 4.40979 32.2149 4.07639 31.8777C3.743 31.5406 3.5557 31.0833 3.5557 30.6065V14.8753C3.55602 14.62 3.61009 14.3677 3.71431 14.1352C3.81853 13.9028 3.97051 13.6954 4.16014 13.5269L14.8267 4.08819C15.1512 3.79996 15.5682 3.641 16.0001 3.641C16.4319 3.641 16.849 3.79996 17.1734 4.08819L27.84 13.5269C28.0296 13.6954 28.1816 13.9028 28.2858 14.1352C28.39 14.3677 28.4441 14.62 28.4444 14.8753V30.6065Z" fill="#EAC693"/>
</svg>
