<svg width="39" height="39" viewBox="0 0 39 39" fill="none" xmlns="http://www.w3.org/2000/svg">
<path d="M29.5754 6.67086C29.1178 6.67086 28.6705 6.80655 28.2901 7.06077C27.9096 7.31499 27.6131 7.67633 27.438 8.09908C27.2628 8.52183 27.217 8.98702 27.3063 9.43581C27.3956 9.88461 27.6159 10.2969 27.9395 10.6204C28.263 10.944 28.6753 11.1643 29.1241 11.2536C29.5729 11.3429 30.0381 11.297 30.4608 11.1219C30.8836 10.9468 31.2449 10.6503 31.4991 10.2698C31.7533 9.88935 31.889 9.44204 31.889 8.98445C31.889 8.37085 31.6453 7.78238 31.2114 7.3485C30.7775 6.91461 30.189 6.67086 29.5754 6.67086ZM38.4442 11.3366C38.4067 9.73695 38.1071 8.15427 37.5573 6.65158C37.0671 5.36586 36.3041 4.20164 35.3209 3.23903C34.3662 2.25079 33.1992 1.49261 31.9083 1.02184C30.4096 0.455317 28.8252 0.14886 27.2233 0.11568C25.1796 -1.07735e-07 24.5241 0 19.2799 0C14.0358 0 13.3803 -1.07735e-07 11.3366 0.11568C9.73474 0.14886 8.15029 0.455317 6.65158 1.02184C5.36306 1.49737 4.19712 2.25491 3.23903 3.23903C2.25079 4.19373 1.49261 5.36067 1.02184 6.65158C0.455317 8.15029 0.14886 9.73474 0.11568 11.3366C-1.07735e-07 13.3803 0 14.0358 0 19.2799C0 24.5241 -1.07735e-07 25.1796 0.11568 27.2233C0.14886 28.8252 0.455317 30.4096 1.02184 31.9083C1.49261 33.1992 2.25079 34.3662 3.23903 35.3209C4.19712 36.305 5.36306 37.0625 6.65158 37.5381C8.15029 38.1046 9.73474 38.411 11.3366 38.4442C13.3803 38.5599 14.0358 38.5599 19.2799 38.5599C24.5241 38.5599 25.1796 38.5599 27.2233 38.4442C28.8252 38.411 30.4096 38.1046 31.9083 37.5381C33.1992 37.0673 34.3662 36.3091 35.3209 35.3209C36.3085 34.3618 37.0721 33.1966 37.5573 31.9083C38.1071 30.4056 38.4067 28.8229 38.4442 27.2233C38.4442 25.1796 38.5599 24.5241 38.5599 19.2799C38.5599 14.0358 38.5599 13.3803 38.4442 11.3366ZM34.9738 26.9919C34.9598 28.2158 34.7381 29.4283 34.3183 30.578C34.0105 31.417 33.516 32.1752 32.8723 32.7952C32.247 33.4324 31.4904 33.9258 30.6551 34.2412C29.5055 34.661 28.2929 34.8827 27.069 34.8967C25.1411 34.9931 24.4277 35.0124 19.3571 35.0124C14.2864 35.0124 13.5731 35.0124 11.6451 34.8967C10.3743 34.9205 9.10899 34.7248 7.90478 34.3183C7.10617 33.9868 6.38428 33.4946 5.78398 32.8723C5.14406 32.2529 4.6558 31.4942 4.35727 30.6551C3.88656 29.489 3.62548 28.2489 3.58607 26.9919C3.58607 25.0639 3.47039 24.3506 3.47039 19.2799C3.47039 14.2093 3.47039 13.496 3.58607 11.568C3.59471 10.3168 3.82312 9.07689 4.26087 7.90478C4.60029 7.09099 5.12126 6.36558 5.78398 5.78398C6.36973 5.12108 7.09365 4.5946 7.90478 4.24159C9.07999 3.81751 10.3186 3.59586 11.568 3.58607C13.496 3.58607 14.2093 3.47039 19.2799 3.47039C24.3506 3.47039 25.0639 3.47039 26.9919 3.58607C28.2158 3.60011 29.4283 3.82176 30.578 4.24159C31.4541 4.56675 32.2405 5.09539 32.8723 5.78398C33.5041 6.37622 33.9978 7.10029 34.3183 7.90478C34.7468 9.0788 34.9686 10.3182 34.9738 11.568C35.0702 13.496 35.0895 14.2093 35.0895 19.2799C35.0895 24.3506 35.0702 25.0639 34.9738 26.9919ZM19.2799 9.38933C17.3246 9.39314 15.4142 9.97646 13.7903 11.0656C12.1663 12.1547 10.9016 13.7007 10.156 15.5083C9.41033 17.3159 9.21721 19.304 9.60102 21.2213C9.98482 23.1386 10.9283 24.8992 12.3123 26.2805C13.6963 27.6618 15.4587 28.6018 17.3767 28.9819C19.2948 29.362 21.2825 29.165 23.0886 28.4158C24.8948 27.6667 26.4384 26.3989 27.5243 24.7729C28.6102 23.1468 29.1898 21.2353 29.1898 19.2799C29.1924 17.9788 28.9377 16.6899 28.4403 15.4875C27.943 14.2851 27.2128 13.1929 26.2918 12.2737C25.3708 11.3545 24.2772 10.6265 23.0738 10.1315C21.8705 9.63646 20.5811 9.38425 19.2799 9.38933ZM19.2799 25.7002C18.0101 25.7002 16.7689 25.3236 15.7131 24.6182C14.6573 23.9127 13.8344 22.91 13.3484 21.7369C12.8625 20.5637 12.7354 19.2728 12.9831 18.0274C13.2308 16.782 13.8423 15.638 14.7402 14.7402C15.638 13.8423 16.782 13.2308 18.0274 12.9831C19.2728 12.7354 20.5637 12.8625 21.7369 13.3484C22.91 13.8344 23.9127 14.6573 24.6182 15.7131C25.3236 16.7689 25.7002 18.0101 25.7002 19.2799C25.7002 20.1231 25.5341 20.9579 25.2115 21.7369C24.8888 22.5158 24.4159 23.2236 23.8197 23.8197C23.2236 24.4159 22.5158 24.8888 21.7369 25.2115C20.9579 25.5341 20.1231 25.7002 19.2799 25.7002Z" fill="#ECF5F3"/>
</svg>
