<svg width="40" height="36" viewBox="0 0 40 36" fill="none" xmlns="http://www.w3.org/2000/svg">
<path d="M14 28H22C24.6522 28 27.1957 26.9464 29.0711 25.0711C30.9464 23.1957 32 20.6522 32 18V16H34C35.5913 16 37.1174 15.3679 38.2426 14.2426C39.3679 13.1174 40 11.5913 40 10C40 8.4087 39.3679 6.88258 38.2426 5.75736C37.1174 4.63214 35.5913 4 34 4H32V2C32 1.46957 31.7893 0.960859 31.4142 0.585786C31.0391 0.210714 30.5304 0 30 0H6C5.46957 0 4.96086 0.210714 4.58579 0.585786C4.21071 0.960859 4 1.46957 4 2V18C4 20.6522 5.05357 23.1957 6.92893 25.0711C8.8043 26.9464 11.3478 28 14 28ZM32 8H34C34.5304 8 35.0391 8.21071 35.4142 8.58579C35.7893 8.96086 36 9.46957 36 10C36 10.5304 35.7893 11.0391 35.4142 11.4142C35.0391 11.7893 34.5304 12 34 12H32V8ZM8 4H28V18C28 19.5913 27.3679 21.1174 26.2426 22.2426C25.1174 23.3679 23.5913 24 22 24H14C12.4087 24 10.8826 23.3679 9.75736 22.2426C8.63214 21.1174 8 19.5913 8 18V4ZM38 32H2C1.46957 32 0.960859 32.2107 0.585786 32.5858C0.210714 32.9609 0 33.4696 0 34C0 34.5304 0.210714 35.0391 0.585786 35.4142C0.960859 35.7893 1.46957 36 2 36H38C38.5304 36 39.0391 35.7893 39.4142 35.4142C39.7893 35.0391 40 34.5304 40 34C40 33.4696 39.7893 32.9609 39.4142 32.5858C39.0391 32.2107 38.5304 32 38 32Z" fill="#EAC693"/>
</svg>
