<svg width="39" height="39" viewBox="0 0 39 39" fill="none" xmlns="http://www.w3.org/2000/svg">
<path d="M29.6082 2.75391C31.3153 2.75391 32.7749 3.35999 33.9871 4.57217C35.1992 5.78434 35.8053 7.24397 35.8053 8.95105V29.6082C35.8053 31.3153 35.1992 32.7749 33.9871 33.9871C32.7749 35.1992 31.3153 35.8053 29.6082 35.8053H25.5628V23.0022H29.8449L30.4904 18.0101H25.5628V14.8254C25.5628 14.0221 25.7314 13.4196 26.0685 13.0179C26.4056 12.6163 27.0619 12.4154 28.0374 12.4154L30.6626 12.3939V7.93971C29.7588 7.8106 28.4821 7.74605 26.8324 7.74605C24.8814 7.74605 23.3214 8.31986 22.1523 9.46748C20.9831 10.6151 20.3986 12.2361 20.3986 14.3305V18.0101H16.095V23.0022H20.3986V35.8053H8.95105C7.24397 35.8053 5.78434 35.1992 4.57217 33.9871C3.35999 32.7749 2.75391 31.3153 2.75391 29.6082V8.95105C2.75391 7.24397 3.35999 5.78434 4.57217 4.57217C5.78434 3.35999 7.24397 2.75391 8.95105 2.75391H29.6082Z" fill="#ECF5F3"/>
</svg>
