<svg width="0" height="0" class="hidden">
  <symbol version="1.1" xmlns="http://www.w3.org/2000/svg" viewBox="0 0 26 32" id="bag">
    <path d="M24.167 8h-4.833v-1.6c0-1.697-0.679-3.325-1.888-4.526s-2.848-1.875-4.557-1.875-3.348 0.674-4.557 1.875c-1.209 1.2-1.888 2.828-1.888 4.526v1.6h-4.833c-0.427 0-0.837 0.169-1.139 0.469s-0.472 0.707-0.472 1.131v17.6c0 1.273 0.509 2.494 1.416 3.394s2.136 1.406 3.418 1.406h16.111c1.282 0 2.511-0.506 3.418-1.406s1.416-2.121 1.416-3.394v-17.6c0-0.424-0.17-0.831-0.472-1.131s-0.712-0.469-1.139-0.469zM9.667 6.4c0-0.849 0.339-1.663 0.944-2.263s1.424-0.937 2.279-0.937 1.674 0.337 2.279 0.937c0.604 0.6 0.944 1.414 0.944 2.263v1.6h-6.444v-1.6zM22.556 27.2c0 0.424-0.17 0.831-0.472 1.131s-0.712 0.469-1.139 0.469h-16.111c-0.427 0-0.837-0.169-1.139-0.469s-0.472-0.707-0.472-1.131v-16h3.222v1.6c0 0.424 0.17 0.831 0.472 1.131s0.712 0.469 1.139 0.469c0.427 0 0.837-0.169 1.139-0.469s0.472-0.707 0.472-1.131v-1.6h6.444v1.6c0 0.424 0.17 0.831 0.472 1.131s0.712 0.469 1.139 0.469c0.427 0 0.837-0.169 1.139-0.469s0.472-0.707 0.472-1.131v-1.6h3.222v16z"></path>
  </symbol>
  <symbol version="1.1" xmlns="http://www.w3.org/2000/svg" viewBox="0 0 32 32" id="cross">
    <path d="M31.708 25.708c-0-0-0-0-0-0l-9.708-9.708 9.708-9.708c0-0 0-0 0-0 0.105-0.105 0.18-0.227 0.229-0.357 0.133-0.356 0.057-0.771-0.229-1.057l-4.586-4.586c-0.286-0.286-0.702-0.361-1.057-0.229-0.13 0.048-0.252 0.124-0.357 0.228 0 0-0 0-0 0l-9.708 9.708-9.708-9.708c-0-0-0-0-0-0-0.105-0.104-0.227-0.18-0.357-0.228-0.356-0.133-0.771-0.057-1.057 0.229l-4.586 4.586c-0.286 0.286-0.361 0.702-0.229 1.057 0.049 0.13 0.124 0.252 0.229 0.357 0 0 0 0 0 0l9.708 9.708-9.708 9.708c-0 0-0 0-0 0-0.104 0.105-0.18 0.227-0.229 0.357-0.133 0.355-0.057 0.771 0.229 1.057l4.586 4.586c0.286 0.286 0.702 0.361 1.057 0.229 0.13-0.049 0.252-0.124 0.357-0.229 0-0 0-0 0-0l9.708-9.708 9.708 9.708c0 0 0 0 0 0 0.105 0.105 0.227 0.18 0.357 0.229 0.356 0.133 0.771 0.057 1.057-0.229l4.586-4.586c0.286-0.286 0.362-0.702 0.229-1.057-0.049-0.13-0.124-0.252-0.229-0.357z"></path>
  </symbol>
  <symbol version="1.1" xmlns="http://www.w3.org/2000/svg" viewBox="0 0 36 32" id="cup">
    <path d="M12.444 24.889h7.111c2.358 0 4.618-0.937 6.285-2.603s2.603-3.928 2.603-6.285v-1.778h1.778c1.415 0 2.771-0.562 3.771-1.562s1.562-2.357 1.562-3.771-0.562-2.771-1.562-3.771c-1-1-2.357-1.562-3.771-1.562h-1.778v-1.778c0-0.472-0.187-0.924-0.521-1.257s-0.786-0.521-1.257-0.521h-21.333c-0.471 0-0.924 0.187-1.257 0.521s-0.521 0.786-0.521 1.257v14.222c0 2.357 0.936 4.618 2.603 6.285s3.928 2.603 6.285 2.603zM28.444 7.111h1.778c0.471 0 0.924 0.187 1.257 0.521s0.521 0.786 0.521 1.257c0 0.471-0.187 0.924-0.521 1.257s-0.786 0.521-1.257 0.521h-1.778v-3.556zM7.111 3.556h17.778v12.444c0 1.415-0.562 2.771-1.562 3.771s-2.357 1.562-3.771 1.562h-7.111c-1.415 0-2.771-0.562-3.771-1.562s-1.562-2.357-1.562-3.771v-12.444zM33.778 28.444h-32c-0.472 0-0.924 0.187-1.257 0.521s-0.521 0.786-0.521 1.257c0 0.471 0.187 0.924 0.521 1.257s0.786 0.521 1.257 0.521h32c0.471 0 0.924-0.187 1.257-0.521s0.521-0.786 0.521-1.257c0-0.471-0.187-0.924-0.521-1.257s-0.786-0.521-1.257-0.521z"></path>
  </symbol>
  <symbol version="1.1" xmlns="http://www.w3.org/2000/svg" viewBox="0 0 32 32" id="facebook2">
    <path d="M29 0h-26c-1.65 0-3 1.35-3 3v26c0 1.65 1.35 3 3 3h13v-14h-4v-4h4v-2c0-3.306 2.694-6 6-6h4v4h-4c-1.1 0-2 0.9-2 2v2h6l-1 4h-5v14h9c1.65 0 3-1.35 3-3v-26c0-1.65-1.35-3-3-3z"></path>
  </symbol>
  <symbol version="1.1" xmlns="http://www.w3.org/2000/svg" viewBox="0 0 28 32" id="home">
    <path d="M26.864 9.627l-9.481-8.406c-0.869-0.786-1.994-1.221-3.16-1.221s-2.291 0.435-3.161 1.221l-9.481 8.406c-0.502 0.454-0.902 1.011-1.175 1.634s-0.411 1.297-0.405 1.978v13.967c0 1.271 0.499 2.491 1.389 3.39s2.095 1.404 3.352 1.404h18.963c1.257 0 2.463-0.505 3.352-1.404s1.388-2.119 1.388-3.39v-13.983c0.003-0.678-0.136-1.35-0.409-1.969s-0.672-1.174-1.172-1.626zM17.383 28.804h-6.321v-7.99c0-0.424 0.166-0.83 0.463-1.13s0.698-0.468 1.117-0.468h3.16c0.419 0 0.821 0.168 1.117 0.468s0.463 0.706 0.463 1.13v7.99zM25.284 27.206c0 0.424-0.166 0.83-0.463 1.13s-0.698 0.468-1.117 0.468h-3.16v-7.99c0-1.272-0.499-2.491-1.389-3.39s-2.095-1.404-3.352-1.404h-3.16c-1.257 0-2.463 0.505-3.352 1.404s-1.389 2.119-1.389 3.39v7.99h-3.16c-0.419 0-0.821-0.168-1.117-0.468s-0.463-0.706-0.463-1.13v-13.983c0-0.227 0.048-0.451 0.141-0.658s0.228-0.391 0.396-0.541l9.481-8.39c0.288-0.256 0.659-0.397 1.043-0.397s0.755 0.141 1.043 0.397l9.481 8.39c0.169 0.15 0.304 0.334 0.396 0.541s0.141 0.431 0.141 0.658v13.983z"></path>
  </symbol>
  <symbol version="1.1" xmlns="http://www.w3.org/2000/svg" viewBox="0 0 32 32" id="linkedin">
    <path d="M29 0h-26c-1.65 0-3 1.35-3 3v26c0 1.65 1.35 3 3 3h26c1.65 0 3-1.35 3-3v-26c0-1.65-1.35-3-3-3zM12 26h-4v-14h4v14zM10 10c-1.106 0-2-0.894-2-2s0.894-2 2-2c1.106 0 2 0.894 2 2s-0.894 2-2 2zM26 26h-4v-8c0-1.106-0.894-2-2-2s-2 0.894-2 2v8h-4v-14h4v2.481c0.825-1.131 2.087-2.481 3.5-2.481 2.488 0 4.5 2.238 4.5 5v9z"></path>
  </symbol>
  <symbol version="1.1" xmlns="http://www.w3.org/2000/svg" viewBox="0 0 32 32" id="menu">
    <path d="M2 6h28v6h-28zM2 14h28v6h-28zM2 22h28v6h-28z"></path>
  </symbol>
</svg>