<svg width="0" height="0" class="hidden">
  <symbol fill="none" xmlns="http://www.w3.org/2000/svg" viewBox="0 0 29 36" id="bag">
    <path d="M27.1875 9H21.75V7.2C21.75 5.29044 20.9862 3.45909 19.6265 2.10883C18.2669 0.758569 16.4228 0 14.5 0C12.5772 0 10.7331 0.758569 9.37348 2.10883C8.01384 3.45909 7.25 5.29044 7.25 7.2V9H1.8125C1.3318 9 0.870779 9.18964 0.530869 9.52721C0.19096 9.86477 0 10.3226 0 10.8V30.6C0 32.0322 0.572878 33.4057 1.59261 34.4184C2.61234 35.4311 3.99539 36 5.4375 36H23.5625C25.0046 36 26.3877 35.4311 27.4074 34.4184C28.4271 33.4057 29 32.0322 29 30.6V10.8C29 10.3226 28.809 9.86477 28.4691 9.52721C28.1292 9.18964 27.6682 9 27.1875 9ZM10.875 7.2C10.875 6.24522 11.2569 5.32955 11.9367 4.65442C12.6166 3.97928 13.5386 3.6 14.5 3.6C15.4614 3.6 16.3834 3.97928 17.0633 4.65442C17.7431 5.32955 18.125 6.24522 18.125 7.2V9H10.875V7.2ZM25.375 30.6C25.375 31.0774 25.184 31.5352 24.8441 31.8728C24.5042 32.2104 24.0432 32.4 23.5625 32.4H5.4375C4.9568 32.4 4.49578 32.2104 4.15587 31.8728C3.81596 31.5352 3.625 31.0774 3.625 30.6V12.6H7.25V14.4C7.25 14.8774 7.44096 15.3352 7.78087 15.6728C8.12078 16.0104 8.58179 16.2 9.0625 16.2C9.54321 16.2 10.0042 16.0104 10.3441 15.6728C10.684 15.3352 10.875 14.8774 10.875 14.4V12.6H18.125V14.4C18.125 14.8774 18.316 15.3352 18.6559 15.6728C18.9958 16.0104 19.4568 16.2 19.9375 16.2C20.4182 16.2 20.8792 16.0104 21.2191 15.6728C21.559 15.3352 21.75 14.8774 21.75 14.4V12.6H25.375V30.6Z" fill="#093A2F"></path>
  </symbol>
  <symbol fill="none" xmlns="http://www.w3.org/2000/svg" viewBox="0 0 28 23" id="burger">
    <line y1="2" x2="28" y2="2" stroke="#EAC693" stroke-width="4"></line>
    <line y1="11" x2="28" y2="11" stroke="#EAC693" stroke-width="4"></line>
    <line y1="21" x2="28" y2="21" stroke="#EAC693" stroke-width="4"></line>
  </symbol>
  <symbol fill="none" xmlns="http://www.w3.org/2000/svg" viewBox="0 0 26 26" id="close">
    <line y1="-2" x2="32.1641" y2="-2" transform="matrix(0.702714 -0.711472 0.702714 0.711472 2.81055 25.8459)" stroke="#012019" stroke-width="4"></line>
    <line y1="-2" x2="32.1641" y2="-2" transform="matrix(0.702714 0.711472 -0.702714 0.711472 0.413086 2.84589)" stroke="#012019" stroke-width="4"></line>
  </symbol>
  <symbol fill="none" xmlns="http://www.w3.org/2000/svg" viewBox="0 0 40 36" id="cup">
    <path d="M14 28H22C24.6522 28 27.1957 26.9464 29.0711 25.0711C30.9464 23.1957 32 20.6522 32 18V16H34C35.5913 16 37.1174 15.3679 38.2426 14.2426C39.3679 13.1174 40 11.5913 40 10C40 8.4087 39.3679 6.88258 38.2426 5.75736C37.1174 4.63214 35.5913 4 34 4H32V2C32 1.46957 31.7893 0.960859 31.4142 0.585786C31.0391 0.210714 30.5304 0 30 0H6C5.46957 0 4.96086 0.210714 4.58579 0.585786C4.21071 0.960859 4 1.46957 4 2V18C4 20.6522 5.05357 23.1957 6.92893 25.0711C8.8043 26.9464 11.3478 28 14 28ZM32 8H34C34.5304 8 35.0391 8.21071 35.4142 8.58579C35.7893 8.96086 36 9.46957 36 10C36 10.5304 35.7893 11.0391 35.4142 11.4142C35.0391 11.7893 34.5304 12 34 12H32V8ZM8 4H28V18C28 19.5913 27.3679 21.1174 26.2426 22.2426C25.1174 23.3679 23.5913 24 22 24H14C12.4087 24 10.8826 23.3679 9.75736 22.2426C8.63214 21.1174 8 19.5913 8 18V4ZM38 32H2C1.46957 32 0.960859 32.2107 0.585786 32.5858C0.210714 32.9609 0 33.4696 0 34C0 34.5304 0.210714 35.0391 0.585786 35.4142C0.960859 35.7893 1.46957 36 2 36H38C38.5304 36 39.0391 35.7893 39.4142 35.4142C39.7893 35.0391 40 34.5304 40 34C40 33.4696 39.7893 32.9609 39.4142 32.5858C39.0391 32.2107 38.5304 32 38 32Z" fill="#EAC693"></path>
  </symbol>
  <symbol fill="none" xmlns="http://www.w3.org/2000/svg" viewBox="0 0 39 39" id="fb">
    <path d="M29.6082 2.75391C31.3153 2.75391 32.7749 3.35999 33.9871 4.57217C35.1992 5.78434 35.8053 7.24397 35.8053 8.95105V29.6082C35.8053 31.3153 35.1992 32.7749 33.9871 33.9871C32.7749 35.1992 31.3153 35.8053 29.6082 35.8053H25.5628V23.0022H29.8449L30.4904 18.0101H25.5628V14.8254C25.5628 14.0221 25.7314 13.4196 26.0685 13.0179C26.4056 12.6163 27.0619 12.4154 28.0374 12.4154L30.6626 12.3939V7.93971C29.7588 7.8106 28.4821 7.74605 26.8324 7.74605C24.8814 7.74605 23.3214 8.31986 22.1523 9.46748C20.9831 10.6151 20.3986 12.2361 20.3986 14.3305V18.0101H16.095V23.0022H20.3986V35.8053H8.95105C7.24397 35.8053 5.78434 35.1992 4.57217 33.9871C3.35999 32.7749 2.75391 31.3153 2.75391 29.6082V8.95105C2.75391 7.24397 3.35999 5.78434 4.57217 4.57217C5.78434 3.35999 7.24397 2.75391 8.95105 2.75391H29.6082Z" fill="#ECF5F3"></path>
  </symbol>
  <symbol fill="none" xmlns="http://www.w3.org/2000/svg" viewBox="0 0 32 36" id="home">
    <path d="M30.2222 10.8301L19.5556 1.37343C18.5778 0.488974 17.3119 0 16.0001 0C14.6882 0 13.4223 0.488974 12.4445 1.37343L1.77793 10.8301C1.21326 11.3408 0.762652 11.9674 0.456115 12.668C0.149579 13.3686 -0.0058534 14.1272 0.000168522 14.8933V30.6065C0.000168522 32.0369 0.562068 33.4088 1.56225 34.4203C2.56244 35.4318 3.91899 36 5.33346 36H26.6666C28.0811 36 29.4377 35.4318 30.4379 34.4203C31.438 33.4088 31.9999 32.0369 31.9999 30.6065V14.8753C32.0034 14.1122 31.8468 13.3571 31.5403 12.6598C31.2339 11.9624 30.7846 11.3388 30.2222 10.8301ZM19.5556 32.4043H12.4445V23.4151C12.4445 22.9382 12.6318 22.481 12.9652 22.1438C13.2986 21.8066 13.7508 21.6172 14.2223 21.6172H17.7778C18.2493 21.6172 18.7015 21.8066 19.0349 22.1438C19.3683 22.481 19.5556 22.9382 19.5556 23.4151V32.4043ZM28.4444 30.6065C28.4444 31.0833 28.2571 31.5406 27.9237 31.8777C27.5903 32.2149 27.1381 32.4043 26.6666 32.4043H23.1111V23.4151C23.1111 21.9846 22.5492 20.6127 21.549 19.6012C20.5488 18.5898 19.1923 18.0215 17.7778 18.0215H14.2223C12.8078 18.0215 11.4513 18.5898 10.4511 19.6012C9.45089 20.6127 8.88899 21.9846 8.88899 23.4151V32.4043H5.33346C4.86197 32.4043 4.40979 32.2149 4.07639 31.8777C3.743 31.5406 3.5557 31.0833 3.5557 30.6065V14.8753C3.55602 14.62 3.61009 14.3677 3.71431 14.1352C3.81853 13.9028 3.97051 13.6954 4.16014 13.5269L14.8267 4.08819C15.1512 3.79996 15.5682 3.641 16.0001 3.641C16.4319 3.641 16.849 3.79996 17.1734 4.08819L27.84 13.5269C28.0296 13.6954 28.1816 13.9028 28.2858 14.1352C28.39 14.3677 28.4441 14.62 28.4444 14.8753V30.6065Z" fill="#EAC693"></path>
  </symbol>
  <symbol fill="none" xmlns="http://www.w3.org/2000/svg" viewBox="0 0 39 39" id="inst">
    <path d="M29.5754 6.67086C29.1178 6.67086 28.6705 6.80655 28.2901 7.06077C27.9096 7.31499 27.6131 7.67633 27.438 8.09908C27.2628 8.52183 27.217 8.98702 27.3063 9.43581C27.3956 9.88461 27.6159 10.2969 27.9395 10.6204C28.263 10.944 28.6753 11.1643 29.1241 11.2536C29.5729 11.3429 30.0381 11.297 30.4608 11.1219C30.8836 10.9468 31.2449 10.6503 31.4991 10.2698C31.7533 9.88935 31.889 9.44204 31.889 8.98445C31.889 8.37085 31.6453 7.78238 31.2114 7.3485C30.7775 6.91461 30.189 6.67086 29.5754 6.67086ZM38.4442 11.3366C38.4067 9.73695 38.1071 8.15427 37.5573 6.65158C37.0671 5.36586 36.3041 4.20164 35.3209 3.23903C34.3662 2.25079 33.1992 1.49261 31.9083 1.02184C30.4096 0.455317 28.8252 0.14886 27.2233 0.11568C25.1796 -1.07735e-07 24.5241 0 19.2799 0C14.0358 0 13.3803 -1.07735e-07 11.3366 0.11568C9.73474 0.14886 8.15029 0.455317 6.65158 1.02184C5.36306 1.49737 4.19712 2.25491 3.23903 3.23903C2.25079 4.19373 1.49261 5.36067 1.02184 6.65158C0.455317 8.15029 0.14886 9.73474 0.11568 11.3366C-1.07735e-07 13.3803 0 14.0358 0 19.2799C0 24.5241 -1.07735e-07 25.1796 0.11568 27.2233C0.14886 28.8252 0.455317 30.4096 1.02184 31.9083C1.49261 33.1992 2.25079 34.3662 3.23903 35.3209C4.19712 36.305 5.36306 37.0625 6.65158 37.5381C8.15029 38.1046 9.73474 38.411 11.3366 38.4442C13.3803 38.5599 14.0358 38.5599 19.2799 38.5599C24.5241 38.5599 25.1796 38.5599 27.2233 38.4442C28.8252 38.411 30.4096 38.1046 31.9083 37.5381C33.1992 37.0673 34.3662 36.3091 35.3209 35.3209C36.3085 34.3618 37.0721 33.1966 37.5573 31.9083C38.1071 30.4056 38.4067 28.8229 38.4442 27.2233C38.4442 25.1796 38.5599 24.5241 38.5599 19.2799C38.5599 14.0358 38.5599 13.3803 38.4442 11.3366ZM34.9738 26.9919C34.9598 28.2158 34.7381 29.4283 34.3183 30.578C34.0105 31.417 33.516 32.1752 32.8723 32.7952C32.247 33.4324 31.4904 33.9258 30.6551 34.2412C29.5055 34.661 28.2929 34.8827 27.069 34.8967C25.1411 34.9931 24.4277 35.0124 19.3571 35.0124C14.2864 35.0124 13.5731 35.0124 11.6451 34.8967C10.3743 34.9205 9.10899 34.7248 7.90478 34.3183C7.10617 33.9868 6.38428 33.4946 5.78398 32.8723C5.14406 32.2529 4.6558 31.4942 4.35727 30.6551C3.88656 29.489 3.62548 28.2489 3.58607 26.9919C3.58607 25.0639 3.47039 24.3506 3.47039 19.2799C3.47039 14.2093 3.47039 13.496 3.58607 11.568C3.59471 10.3168 3.82312 9.07689 4.26087 7.90478C4.60029 7.09099 5.12126 6.36558 5.78398 5.78398C6.36973 5.12108 7.09365 4.5946 7.90478 4.24159C9.07999 3.81751 10.3186 3.59586 11.568 3.58607C13.496 3.58607 14.2093 3.47039 19.2799 3.47039C24.3506 3.47039 25.0639 3.47039 26.9919 3.58607C28.2158 3.60011 29.4283 3.82176 30.578 4.24159C31.4541 4.56675 32.2405 5.09539 32.8723 5.78398C33.5041 6.37622 33.9978 7.10029 34.3183 7.90478C34.7468 9.0788 34.9686 10.3182 34.9738 11.568C35.0702 13.496 35.0895 14.2093 35.0895 19.2799C35.0895 24.3506 35.0702 25.0639 34.9738 26.9919ZM19.2799 9.38933C17.3246 9.39314 15.4142 9.97646 13.7903 11.0656C12.1663 12.1547 10.9016 13.7007 10.156 15.5083C9.41033 17.3159 9.21721 19.304 9.60102 21.2213C9.98482 23.1386 10.9283 24.8992 12.3123 26.2805C13.6963 27.6618 15.4587 28.6018 17.3767 28.9819C19.2948 29.362 21.2825 29.165 23.0886 28.4158C24.8948 27.6667 26.4384 26.3989 27.5243 24.7729C28.6102 23.1468 29.1898 21.2353 29.1898 19.2799C29.1924 17.9788 28.9377 16.6899 28.4403 15.4875C27.943 14.2851 27.2128 13.1929 26.2918 12.2737C25.3708 11.3545 24.2772 10.6265 23.0738 10.1315C21.8705 9.63646 20.5811 9.38425 19.2799 9.38933ZM19.2799 25.7002C18.0101 25.7002 16.7689 25.3236 15.7131 24.6182C14.6573 23.9127 13.8344 22.91 13.3484 21.7369C12.8625 20.5637 12.7354 19.2728 12.9831 18.0274C13.2308 16.782 13.8423 15.638 14.7402 14.7402C15.638 13.8423 16.782 13.2308 18.0274 12.9831C19.2728 12.7354 20.5637 12.8625 21.7369 13.3484C22.91 13.8344 23.9127 14.6573 24.6182 15.7131C25.3236 16.7689 25.7002 18.0101 25.7002 19.2799C25.7002 20.1231 25.5341 20.9579 25.2115 21.7369C24.8888 22.5158 24.4159 23.2236 23.8197 23.8197C23.2236 24.4159 22.5158 24.8888 21.7369 25.2115C20.9579 25.5341 20.1231 25.7002 19.2799 25.7002Z" fill="#ECF5F3"></path>
  </symbol>
</svg>